#N canvas 928 423 616 414 12;
#X declare -path lib;
#N canvas 1270 325 477 585 fader-page 0;
#X obj 20 20 midi-input;
#X obj 20 265 - 4;
#X obj 94 295 timer;
#X obj 20 78 route 127 0;
#X obj 20 225 t f b;
#X floatatom 94 324 5 0 0 0 - - -, f 5;
#X obj 20 49 route ctl sysex;
#X obj 200 90 list split 5;
#X obj 200 119 route 0;
#X text 270 120 select layout;
#X obj 200 206 unpack f f;
#X floatatom 200 235 5 0 0 0 - - -, f 5;
#X floatatom 267 235 5 0 0 0 - - -, f 5;
#X obj 20 549 midi-output;
#X obj 20 496 hradio 15 0 0 4 empty empty empty 0 -8 0 10 #fcfcfc #000000
#000000 0;
#X msg 20 520 sysex 0 32 41 2 14 0 1 \$1 0;
#X obj 200 148 route 1;
#X text 270 148 filter out fader page;
#X obj 290 263 value page;
#X obj 200 263 value layout;
#X obj 94 352 moses 500;
#X text 170 352 ms treshold for momentary changes;
#X obj 330 450 value page;
#X obj 240 450 value layout;
#X obj 240 479 pack f f;
#X msg 240 518 sysex 0 32 41 2 14 0 \$1 \$2 0;
#X obj 240 420 t b b b;
#X obj 94 381 t b;
#X obj 94 439 ==;
#X obj 94 468 sel 1;
#X msg 200 380 -1;
#X obj 94 497 bng 15 250 50 0 empty empty empty 17 7 0 10 #fcfcfc #000000
#000000;
#X obj 94 225 - 4;
#X obj 94 410 f -1;
#X obj 94 255 t b b f f;
#X obj 144 410 f -1;
#X text 240 390 switch back to most recent page;
#X obj 200 177 t a b;
#X msg 300 206 -1;
#X obj 20 107 unpack f;
#X obj 94 107 unpack f;
#X floatatom 20 136 5 0 0 0 - - -, f 5;
#X floatatom 94 136 5 0 0 0 - - -, f 5;
#X obj 20 164 moses 4;
#X obj 20 194 moses 8;
#X obj 94 164 moses 4;
#X obj 94 194 moses 8;
#X text 150 20 This manages fader page changes on the Launchpad and
keeps track of the last layout to implement momentary switches., f
44;
#X connect 0 0 6 0;
#X connect 1 0 14 0;
#X connect 2 0 5 0;
#X connect 3 0 39 0;
#X connect 3 1 40 0;
#X connect 4 0 1 0;
#X connect 4 1 2 0;
#X connect 5 0 20 0;
#X connect 6 0 3 0;
#X connect 6 1 7 0;
#X connect 7 1 8 0;
#X connect 8 0 16 0;
#X connect 10 0 11 0;
#X connect 10 1 12 0;
#X connect 11 0 19 0;
#X connect 12 0 18 0;
#X connect 14 0 15 0;
#X connect 15 0 13 0;
#X connect 16 1 37 0;
#X connect 20 0 27 0;
#X connect 20 1 26 0;
#X connect 22 0 24 1;
#X connect 23 0 24 0;
#X connect 24 0 25 0;
#X connect 25 0 13 0;
#X connect 26 0 23 0;
#X connect 26 1 22 0;
#X connect 26 2 30 0;
#X connect 27 0 33 0;
#X connect 28 0 29 0;
#X connect 29 0 31 0;
#X connect 30 0 35 1;
#X connect 31 0 26 0;
#X connect 32 0 34 0;
#X connect 33 0 28 0;
#X connect 34 0 35 0;
#X connect 34 1 2 1;
#X connect 34 2 28 1;
#X connect 34 3 35 1;
#X connect 35 0 33 1;
#X connect 37 0 10 0;
#X connect 37 1 38 0;
#X connect 38 0 33 1;
#X connect 39 0 41 0;
#X connect 40 0 42 0;
#X connect 41 0 43 0;
#X connect 42 0 45 0;
#X connect 43 1 44 0;
#X connect 44 0 4 0;
#X connect 45 1 46 0;
#X connect 46 0 32 0;
#X restore 30 200 pd fader-page;
#X obj 30 240 tgl 15 0 empty empty empty 17 7 0 10 #fcfcfc #000000
#000000 0 1;
#N canvas 193 289 681 553 init 0;
#X obj 30 86 tgl 15 0 empty empty empty 17 7 0 10 #fcfcfc #000000 #000000
0 1;
#X msg 30 120 sysex 0 32 41 2 14 16 \$1;
#X text 70 76 toggle between DAW/session and standalone mode (enable
this first), f 37;
#X obj 30 190 tgl 15 0 empty empty empty 17 7 0 10 #fcfcfc #000000
#000000 0 1;
#X text 72 190 toggle between note and drum mode, f 37;
#X obj 30 220 + 1;
#X msg 30 250 sysex 0 32 41 2 14 0 \$1;
#N canvas 1380 339 450 376 drum-rack 0;
#X msg 20 80 64;
#X obj 20 109 t f b;
#X obj 20 138 until;
#X msg 80 140 0;
#X obj 20 167 f;
#X obj 60 167 + 1;
#X obj 20 196 t f f;
#X msg 20 320 note \$1 \$2 9;
#X obj 20 285 pack f f;
#X obj 20 349 midi-output;
#X obj 20 225 + 36;
#X obj 73 225 div 16;
#X obj 20 20 inlet;
#X obj 20 49 t b f;
#X obj 73 254 expr if($f2!=0 \, 8*$f1+33 \, 0);
#X connect 0 0 1 0;
#X connect 1 0 2 0;
#X connect 1 1 3 0;
#X connect 2 0 4 0;
#X connect 3 0 4 1;
#X connect 4 0 5 0;
#X connect 4 0 6 0;
#X connect 5 0 4 1;
#X connect 6 0 10 0;
#X connect 6 1 11 0;
#X connect 7 0 9 0;
#X connect 8 0 7 0;
#X connect 10 0 8 0;
#X connect 11 0 14 0;
#X connect 12 0 13 0;
#X connect 13 0 0 0;
#X connect 13 1 14 1;
#X connect 14 0 8 1;
#X restore 420 320 pd drum-rack;
#X text 450 280 populate the drum rack;
#X obj 420 280 tgl 15 0 empty empty empty 17 7 0 10 #fcfcfc #000000
#000000 0 1;
#X obj 30 500 midi-output;
#X msg 30 460 note 4 60 1 \, note 5 62 1 \, note 6 64 1 \, note 7 66
1;
#X text 62 426 volume/pan/sends/device buttons;
#X obj 420 170 tgl 15 0 empty empty empty 17 7 0 10 #fcfcfc #000000
#000000 0 1;
#X text 450 170 populate the grid;
#N canvas 1307 363 450 457 grid 0;
#X obj 20 109 t f b;
#X obj 20 138 until;
#X msg 80 140 0;
#X obj 20 167 f;
#X obj 60 167 + 1;
#X obj 20 196 t f f;
#X obj 20 355 pack f f;
#X obj 20 419 midi-output;
#X obj 20 20 inlet;
#X obj 20 49 t b f;
#X obj 73 324 expr if($f2!=0 \, 8*$f1+33 \, 0);
#X msg 20 80 32;
#X obj 73 255 div 8;
#X floatatom 20 254 5 0 0 0 - - -, f 5;
#X msg 20 390 note \$1 \$2 1;
#X obj 241 169 expr int($f1/2)*4+$f1%2*20;
#X floatatom 241 198 5 0 0 0 - - -, f 5;
#X obj 20 225 expr ($f1%8>=4)*6+$f2+($f1%8)+11;
#X obj 73 284 t f f;
#X connect 0 0 1 0;
#X connect 0 1 2 0;
#X connect 1 0 3 0;
#X connect 2 0 3 1;
#X connect 3 0 4 0;
#X connect 3 0 5 0;
#X connect 4 0 3 1;
#X connect 5 0 17 0;
#X connect 5 1 12 0;
#X connect 6 0 14 0;
#X connect 8 0 9 0;
#X connect 9 0 11 0;
#X connect 9 1 10 1;
#X connect 10 0 6 1;
#X connect 11 0 0 0;
#X connect 12 0 18 0;
#X connect 13 0 6 0;
#X connect 14 0 7 0;
#X connect 15 0 16 0;
#X connect 16 0 17 1;
#X connect 17 0 13 0;
#X connect 18 0 10 0;
#X connect 18 1 15 0;
#X restore 420 210 pd grid;
#X obj 420 360 tgl 15 0 empty empty empty 17 7 0 10 #fcfcfc #000000
#000000 0 1;
#X text 450 360 populate the fader banks;
#N canvas 805 274 450 590 faders 0;
#X msg 20 100 4;
#X obj 20 129 t f b;
#X obj 20 158 until;
#X msg 80 158 0;
#X obj 20 187 f;
#X obj 80 187 + 1;
#X obj 20 216 t b f;
#X obj 20 279 t f b;
#X obj 20 308 until;
#X msg 80 308 0;
#X obj 20 337 f;
#X obj 80 337 + 1;
#X msg 20 250 8;
#X obj 20 529 midi-output;
#X obj 67 430 expr (60+$f2*2)*$f3;
#X obj 20 60 t b f;
#X obj 20 20 inlet;
#X obj 43 400 expr $f1+$f2*8;
#X obj 20 470 pack f f f f f;
#X obj 20 366 t f f f f;
#X msg 20 500 sysex 0 32 41 2 14 1 \$4 0 \$1 \$5 \$2 \$3;
#N canvas 627 418 474 300 polarity 0;
#X obj 30 30 inlet;
#X obj 80 30 inlet;
#X obj 130 30 inlet;
#X obj 30 150 outlet;
#X text 30 190 This is specific to Koala which has some bipolar controls
which we want to reflect in the fader setup. You can change this to
constant 0 or 1 if you just want all faders to be unipolar or bipolar
\, respectively.;
#X text 200 20 polarity setup for faders -- the result must be 0 for
unipolar or 1 for bipolar, f 34;
#X obj 30 80 expr ($f2==1&&($f1==1||$f1==2)||$f2==2&&($f1==1||$f1==7)||$f2==3&&$f1==5)*$f3
, f 36;
#X connect 0 0 6 0;
#X connect 1 0 6 1;
#X connect 2 0 6 2;
#X connect 6 0 3 0;
#X restore 230 430 pd polarity;
#X text 100 100 iterate over fader pages 0-3;
#X text 100 250 iterate over faders 0-7 per page;
#X text 100 60 incoming toggle value may be 0 to clear;
#X text 190 530 ^__ change 0 to 1 for horizontal;
#X connect 0 0 1 0;
#X connect 1 0 2 0;
#X connect 1 1 3 0;
#X connect 2 0 4 0;
#X connect 3 0 4 1;
#X connect 4 0 5 0;
#X connect 4 0 6 0;
#X connect 5 0 4 1;
#X connect 6 0 12 0;
#X connect 6 1 14 1;
#X connect 6 1 17 1;
#X connect 6 1 18 3;
#X connect 6 1 21 1;
#X connect 7 0 8 0;
#X connect 7 1 9 0;
#X connect 8 0 10 0;
#X connect 9 0 10 1;
#X connect 10 0 11 0;
#X connect 10 0 19 0;
#X connect 11 0 10 1;
#X connect 12 0 7 0;
#X connect 14 0 18 2;
#X connect 15 0 0 0;
#X connect 15 1 14 2;
#X connect 15 1 21 2;
#X connect 16 0 15 0;
#X connect 17 0 18 1;
#X connect 18 0 20 0;
#X connect 19 0 18 0;
#X connect 19 1 17 0;
#X connect 19 2 14 0;
#X connect 19 3 21 0;
#X connect 20 0 13 0;
#X connect 21 0 18 4;
#X restore 420 400 pd faders;
#X obj 30 20 inlet;
#X obj 420 440 tgl 15 0 empty empty empty 17 7 0 10 #fcfcfc #000000
#000000 0 1;
#X text 450 440 random fader positions;
#N canvas 805 274 450 590 faderpos 0;
#X msg 20 100 4;
#X obj 20 129 t f b;
#X obj 20 158 until;
#X msg 80 158 0;
#X obj 20 187 f;
#X obj 80 187 + 1;
#X obj 20 216 t b f;
#X obj 20 279 t f b;
#X obj 20 308 until;
#X msg 80 308 0;
#X obj 20 337 f;
#X obj 80 337 + 1;
#X msg 20 250 8;
#X obj 20 529 midi-output;
#X obj 20 60 t b f;
#X obj 20 20 inlet;
#X msg 20 500 ctl \$1 \$2 5;
#X obj 20 366 t b f;
#X obj 20 395 expr random(0 \, 127)*$f2;
#X obj 20 470 pack f f;
#X obj 73 430 expr $f1+$f2*8;
#X connect 0 0 1 0;
#X connect 1 0 2 0;
#X connect 1 1 3 0;
#X connect 2 0 4 0;
#X connect 3 0 4 1;
#X connect 4 0 5 0;
#X connect 4 0 6 0;
#X connect 5 0 4 1;
#X connect 6 0 12 0;
#X connect 6 1 20 1;
#X connect 7 0 8 0;
#X connect 7 1 9 0;
#X connect 8 0 10 0;
#X connect 9 0 10 1;
#X connect 10 0 11 0;
#X connect 10 0 17 0;
#X connect 11 0 10 1;
#X connect 12 0 7 0;
#X connect 14 0 0 0;
#X connect 14 1 18 1;
#X connect 15 0 14 0;
#X connect 16 0 13 0;
#X connect 17 0 18 0;
#X connect 17 1 20 0;
#X connect 18 0 19 0;
#X connect 19 0 16 0;
#X connect 20 0 19 1;
#X restore 420 480 pd faderpos;
#X msg 30 390 note 1 61 1 \, note 2 5 1 \, note 3 39 1;
#X text 52 356 rec arm/mute/solo buttons;
#X msg 30 320 note 10 5 1 \, note 20 3 1 \, note 8 3 1;
#X text 52 286 rec/play/stop buttons;
#X obj 400 60 t b f f f;
#X obj 30 160 r \$0-note-mode;
#X connect 0 0 1 0;
#X connect 1 0 10 0;
#X connect 3 0 5 0;
#X connect 5 0 6 0;
#X connect 6 0 10 0;
#X connect 9 0 7 0;
#X connect 11 0 10 0;
#X connect 13 0 15 0;
#X connect 16 0 18 0;
#X connect 19 0 27 0;
#X connect 20 0 22 0;
#X connect 23 0 10 0;
#X connect 25 0 10 0;
#X connect 27 0 25 0;
#X connect 27 0 23 0;
#X connect 27 0 11 0;
#X connect 27 1 13 0;
#X connect 27 1 9 0;
#X connect 27 1 16 0;
#X connect 27 2 3 0;
#X connect 27 3 0 0;
#X connect 28 0 3 0;
#X restore 30 160 pd init;
#X obj 30 120 tgl 25 0 empty empty empty 17 7 0 10 #01b741 #000000
#000000 0 1;
#N canvas 374 439 450 300 monitor 0;
#X obj 20 70 midi-input;
#X obj 20 99 spigot;
#X obj 20 128 print in;
#X obj 20 20 inlet;
#X connect 0 0 1 0;
#X connect 1 0 2 0;
#X connect 3 0 1 1;
#X restore 30 270 pd monitor;
#X text 30 300 monitor incoming MIDI events in the console, f 19;
#N canvas 600 211 534 403 midi 0;
#X obj 30 30 midi-input;
#X obj 30 59 route note ctl;
#X msg 30 88 \$3 \$1 \$2;
#N canvas 262 374 496 572 session 0;
#X obj 20 50 unpack f f;
#X obj 20 79 t f f;
#X floatatom 20 137 5 0 0 0 - - -, f 5;
#X floatatom 70 137 5 0 0 0 - - -, f 5;
#X obj 20 108 div 10;
#X obj 70 108 mod 10;
#X obj 20 165 - 1;
#X floatatom 20 194 5 0 0 0 - - -, f 5;
#X obj 70 165 - 1;
#X floatatom 70 194 5 0 0 0 - - -, f 5;
#X obj 20 222 t f f;
#X obj 20 251 div 2;
#X obj 70 251 mod 2;
#X floatatom 20 280 5 0 0 0 - - -, f 5;
#X floatatom 70 280 5 0 0 0 - - -, f 5;
#X floatatom 70 343 5 0 0 0 - - -, f 5;
#X floatatom 20 403 5 0 0 0 - - -, f 5;
#X obj 20 374 expr if($f2<4 \, $f1 \, $f1+2)+10;
#X obj 70 222 t f f;
#X obj 20 431 + 16;
#X text 70 431 to 2nd output port;
#X obj 20 460 pack f f f;
#X msg 20 489 note \$2 \$3 \$1;
#X obj 20 20 inlet;
#X obj 20 530 outlet;
#X obj 70 314 expr if($f2<4 \, $f1*4+$f2 \, $f1*4+$f2-4)+52;
#X connect 0 0 1 0;
#X connect 0 1 21 2;
#X connect 1 0 4 0;
#X connect 1 1 5 0;
#X connect 2 0 6 0;
#X connect 3 0 8 0;
#X connect 4 0 2 0;
#X connect 5 0 3 0;
#X connect 6 0 7 0;
#X connect 7 0 10 0;
#X connect 8 0 9 0;
#X connect 9 0 18 0;
#X connect 10 0 11 0;
#X connect 10 1 12 0;
#X connect 11 0 13 0;
#X connect 12 0 14 0;
#X connect 13 0 17 0;
#X connect 14 0 25 0;
#X connect 15 0 21 1;
#X connect 16 0 19 0;
#X connect 17 0 16 0;
#X connect 18 0 17 1;
#X connect 18 1 25 1;
#X connect 19 0 21 0;
#X connect 21 0 22 0;
#X connect 22 0 24 0;
#X connect 23 0 0 0;
#X connect 25 0 15 0;
#X restore 30 160 pd session;
#N canvas 350 455 491 399 pads 0;
#X obj 20 60 unpack f f;
#X obj 20 119 t f f;
#X floatatom 20 177 5 0 0 0 - - -, f 5;
#X floatatom 70 177 5 0 0 0 - - -, f 5;
#X obj 20 148 div 16;
#X obj 70 148 mod 16;
#X obj 20 89 - 36;
#X obj 20 205 + 10;
#X obj 70 205 + 36;
#X floatatom 20 234 5 0 0 0 - - -, f 5;
#X floatatom 70 234 5 0 0 0 - - -, f 5;
#X obj 20 264 + 16;
#X text 70 264 to 2nd output port;
#X obj 20 293 pack f f f;
#X msg 20 322 note \$2 \$3 \$1;
#X obj 20 20 inlet;
#X obj 20 360 outlet;
#X connect 0 0 6 0;
#X connect 0 1 13 2;
#X connect 1 0 4 0;
#X connect 1 1 5 0;
#X connect 2 0 7 0;
#X connect 3 0 8 0;
#X connect 4 0 2 0;
#X connect 5 0 3 0;
#X connect 6 0 1 0;
#X connect 7 0 9 0;
#X connect 8 0 10 0;
#X connect 9 0 11 0;
#X connect 10 0 13 1;
#X connect 11 0 13 0;
#X connect 13 0 14 0;
#X connect 14 0 16 0;
#X connect 15 0 0 0;
#X restore 120 160 pd pads;
#X obj 30 340 midi-output;
#X msg 290 88 \$3 \$2 \$1;
#X obj 290 117 route 1 5;
#N canvas 1150 249 537 611 buttons 0;
#X msg 20 89 note 78 \$1 32;
#X msg 130 89 note 79 \$1 32;
#X obj 20 20 inlet;
#X obj 20 580 outlet;
#X msg 300 140 note 74 \$1 32;
#X msg 410 140 note 73 \$1 32;
#X obj 40 130 sel 127;
#X obj 40 159 s \$0-note-mode;
#X obj 300 110 route 2 3;
#X obj 20 60 route 10 20 1;
#X obj 300 80 spigot 1;
#X obj 353 51 tgl 15 1 empty \$0-pad empty 17 7 0 10 #fcfcfc #000000
#000000 0 1;
#X text 400 110 pad mute/solo;
#X obj 169 254 tgl 15 1 empty \$0-solo empty 17 7 0 10 #fcfcfc #000000
#000000 0 1;
#X obj 130 283 spigot;
#X obj 130 471 + 57;
#X obj 130 501 pack f f;
#X msg 130 530 ctl \$2 \$1 32;
#X obj 319 254 tgl 15 1 empty \$0-mute empty 17 7 0 10 #fcfcfc #000000
#000000 0 1;
#X obj 280 283 spigot;
#X obj 280 501 pack f f;
#X msg 280 530 ctl \$2 \$1 32;
#X obj 280 471 + 65;
#X obj 130 324 stripnote;
#N canvas 442 319 476 546 mute 0;
#X obj 50 30 inlet;
#X obj 82 90 sel 0 1 2 3 4 5 6 7;
#X obj 82 119 tgl 15 0 empty empty empty 17 7 0 10 #fcfcfc #000000
#000000 0 1;
#X obj 102 119 tgl 15 0 empty empty empty 17 7 0 10 #fcfcfc #000000
#000000 0 1;
#X obj 122 119 tgl 15 0 empty empty empty 17 7 0 10 #fcfcfc #000000
#000000 0 1;
#X obj 142 119 tgl 15 0 empty empty empty 17 7 0 10 #fcfcfc #000000
#000000 0 1;
#X obj 162 119 tgl 15 0 empty empty empty 17 7 0 10 #fcfcfc #000000
#000000 0 1;
#X obj 182 119 tgl 15 0 empty empty empty 17 7 0 10 #fcfcfc #000000
#000000 0 1;
#X obj 202 119 tgl 15 0 empty empty empty 17 7 0 10 #fcfcfc #000000
#000000 0 1;
#X obj 222 119 tgl 15 0 empty empty empty 17 7 0 10 #fcfcfc #000000
#000000 0 1;
#X obj 50 59 t f f;
#X obj 50 188 outlet;
#X obj 110 158 * 127;
#X obj 110 188 outlet;
#X obj 80 290 f;
#X obj 110 290 f;
#X obj 140 290 f;
#X obj 170 290 f;
#X obj 200 290 f;
#X obj 230 290 f;
#X obj 260 290 f;
#X obj 290 290 f;
#X obj 160 200 bng 15 250 50 0 empty \$0-set-mute empty 17 7 0 10 #fcfcfc
#000000 #000000;
#X obj 210 200 bng 15 250 50 0 empty \$0-clear-mute empty 17 7 0 10
#fcfcfc #000000 #000000;
#X msg 210 222 0;
#X obj 80 380 unpack f f;
#X obj 80 440 pack f f;
#X obj 80 498 midi-output;
#X text 130 30 this maintains the state of the mute buttons and outputs
the current state to the device, f 45;
#X msg 80 319 101 \$1;
#X msg 110 349 102 \$1;
#X msg 140 319 103 \$1;
#X msg 170 349 104 \$1;
#X msg 200 319 105 \$1;
#X msg 230 349 106 \$1;
#X msg 260 319 107 \$1;
#X msg 290 349 108 \$1;
#X obj 147 410 * 5;
#X msg 80 469 note \$1 \$2 1;
#X connect 0 0 10 0;
#X connect 1 0 2 0;
#X connect 1 1 3 0;
#X connect 1 2 4 0;
#X connect 1 3 5 0;
#X connect 1 4 6 0;
#X connect 1 5 7 0;
#X connect 1 6 8 0;
#X connect 1 7 9 0;
#X connect 2 0 12 0;
#X connect 2 0 14 0;
#X connect 3 0 12 0;
#X connect 3 0 15 0;
#X connect 4 0 12 0;
#X connect 4 0 16 0;
#X connect 5 0 12 0;
#X connect 5 0 17 0;
#X connect 6 0 12 0;
#X connect 6 0 18 0;
#X connect 7 0 12 0;
#X connect 7 0 19 0;
#X connect 8 0 12 0;
#X connect 8 0 20 0;
#X connect 9 0 12 0;
#X connect 9 0 21 0;
#X connect 10 0 11 0;
#X connect 10 1 1 0;
#X connect 12 0 13 0;
#X connect 14 0 29 0;
#X connect 15 0 30 0;
#X connect 16 0 31 0;
#X connect 17 0 32 0;
#X connect 18 0 33 0;
#X connect 19 0 34 0;
#X connect 20 0 35 0;
#X connect 21 0 36 0;
#X connect 22 0 14 0;
#X connect 22 0 21 0;
#X connect 22 0 20 0;
#X connect 22 0 19 0;
#X connect 22 0 18 0;
#X connect 22 0 17 0;
#X connect 22 0 16 0;
#X connect 22 0 15 0;
#X connect 23 0 24 0;
#X connect 24 0 29 0;
#X connect 24 0 35 0;
#X connect 24 0 33 0;
#X connect 24 0 31 0;
#X connect 24 0 30 0;
#X connect 24 0 32 0;
#X connect 24 0 34 0;
#X connect 24 0 36 0;
#X connect 25 0 26 0;
#X connect 25 1 37 0;
#X connect 26 0 38 0;
#X connect 29 0 25 0;
#X connect 30 0 25 0;
#X connect 31 0 25 0;
#X connect 32 0 25 0;
#X connect 33 0 25 0;
#X connect 34 0 25 0;
#X connect 35 0 25 0;
#X connect 36 0 25 0;
#X connect 37 0 26 1;
#X connect 38 0 27 0;
#X restore 280 440 pd mute;
#X obj 280 324 stripnote;
#N canvas 845 315 476 546 solo 0;
#X obj 50 30 inlet;
#X obj 82 90 sel 0 1 2 3 4 5 6 7;
#X obj 82 119 tgl 15 0 empty empty empty 17 7 0 10 #fcfcfc #000000
#000000 0 1;
#X obj 102 119 tgl 15 0 empty empty empty 17 7 0 10 #fcfcfc #000000
#000000 0 1;
#X obj 122 119 tgl 15 0 empty empty empty 17 7 0 10 #fcfcfc #000000
#000000 0 1;
#X obj 142 119 tgl 15 0 empty empty empty 17 7 0 10 #fcfcfc #000000
#000000 0 1;
#X obj 162 119 tgl 15 0 empty empty empty 17 7 0 10 #fcfcfc #000000
#000000 0 1;
#X obj 182 119 tgl 15 0 empty empty empty 17 7 0 10 #fcfcfc #000000
#000000 0 1;
#X obj 202 119 tgl 15 0 empty empty empty 17 7 0 10 #fcfcfc #000000
#000000 0 1;
#X obj 222 119 tgl 15 0 empty empty empty 17 7 0 10 #fcfcfc #000000
#000000 0 1;
#X obj 50 59 t f f;
#X obj 50 188 outlet;
#X obj 110 158 * 127;
#X obj 110 188 outlet;
#X obj 80 290 f;
#X obj 110 290 f;
#X obj 140 290 f;
#X obj 170 290 f;
#X obj 200 290 f;
#X obj 230 290 f;
#X obj 260 290 f;
#X obj 290 290 f;
#X obj 160 200 bng 15 250 50 0 empty \$0-set-solo empty 17 7 0 10 #fcfcfc
#000000 #000000;
#X obj 210 200 bng 15 250 50 0 empty \$0-clear-solo empty 17 7 0 10
#fcfcfc #000000 #000000;
#X msg 210 222 0;
#X obj 80 380 unpack f f;
#X obj 80 440 pack f f;
#X obj 80 498 midi-output;
#X text 130 30 this maintains the state of the solo buttons and outputs
the current state to the device, f 45;
#X obj 147 410 * 39;
#X msg 80 319 101 \$1;
#X msg 110 349 102 \$1;
#X msg 140 319 103 \$1;
#X msg 170 349 104 \$1;
#X msg 200 319 105 \$1;
#X msg 230 349 106 \$1;
#X msg 260 319 107 \$1;
#X msg 290 349 108 \$1;
#X msg 80 469 note \$1 \$2 1;
#X connect 0 0 10 0;
#X connect 1 0 2 0;
#X connect 1 1 3 0;
#X connect 1 2 4 0;
#X connect 1 3 5 0;
#X connect 1 4 6 0;
#X connect 1 5 7 0;
#X connect 1 6 8 0;
#X connect 1 7 9 0;
#X connect 2 0 12 0;
#X connect 2 0 14 0;
#X connect 3 0 12 0;
#X connect 3 0 15 0;
#X connect 4 0 12 0;
#X connect 4 0 16 0;
#X connect 5 0 12 0;
#X connect 5 0 17 0;
#X connect 6 0 12 0;
#X connect 6 0 18 0;
#X connect 7 0 12 0;
#X connect 7 0 19 0;
#X connect 8 0 12 0;
#X connect 8 0 20 0;
#X connect 9 0 12 0;
#X connect 9 0 21 0;
#X connect 10 0 11 0;
#X connect 10 1 1 0;
#X connect 12 0 13 0;
#X connect 14 0 30 0;
#X connect 15 0 31 0;
#X connect 16 0 32 0;
#X connect 17 0 33 0;
#X connect 18 0 34 0;
#X connect 19 0 35 0;
#X connect 20 0 36 0;
#X connect 21 0 37 0;
#X connect 22 0 14 0;
#X connect 22 0 21 0;
#X connect 22 0 20 0;
#X connect 22 0 19 0;
#X connect 22 0 18 0;
#X connect 22 0 17 0;
#X connect 22 0 16 0;
#X connect 22 0 15 0;
#X connect 23 0 24 0;
#X connect 24 0 30 0;
#X connect 24 0 36 0;
#X connect 24 0 34 0;
#X connect 24 0 32 0;
#X connect 24 0 31 0;
#X connect 24 0 33 0;
#X connect 24 0 35 0;
#X connect 24 0 37 0;
#X connect 25 0 26 0;
#X connect 25 1 29 0;
#X connect 26 0 38 0;
#X connect 29 0 26 1;
#X connect 30 0 25 0;
#X connect 31 0 25 0;
#X connect 32 0 25 0;
#X connect 33 0 25 0;
#X connect 34 0 25 0;
#X connect 35 0 25 0;
#X connect 36 0 25 0;
#X connect 37 0 25 0;
#X connect 38 0 27 0;
#X restore 130 440 pd solo;
#X obj 300 110 route 2 3;
#X obj 300 80 spigot 1;
#X obj 353 51 tgl 15 1 empty \$0-pad empty 17 7 0 10 #fcfcfc #000000
#000000 0 1;
#X text 130 220 mixer mute/solo;
#X obj 130 353 moses 101;
#X obj 280 353 moses 101;
#X obj 130 383 moses 109;
#X obj 280 383 moses 109;
#X obj 130 412 - 101;
#X obj 280 412 - 101;
#N canvas 0 0 450 300 mode 0;
#X obj 130 490 midi-input;
#X obj 130 519 route sysex;
#X obj 130 548 list split 5;
#X obj 130 577 route 0;
#X text 200 580 select layout;
#X obj 130 606 unpack f f;
#X floatatom 130 635 5 0 0 0 - - -, f 5;
#X floatatom 197 635 5 0 0 0 - - -, f 5;
#X text 250 635 layout/page;
#X obj 130 663 == 4;
#X text 180 663 4 = note/drum layout;
#X obj 130 692 s \$0-pad;
#X obj 40 170 route 2 3;
#X obj 40 140 spigot 1;
#X obj 93 80 r \$0-pad;
#X obj 93 109 == 0;
#X obj 40 199 > 0;
#X obj 90 199 > 0;
#X obj 40 228 sel 1;
#X msg 40 257 1 0;
#X obj 90 228 sel 1;
#X msg 90 257 0 1;
#X obj 143 109 == 1;
#X msg 143 257 0 0;
#X obj 90 286 unpack f f;
#X obj 90 315 s \$0-mute;
#X obj 170 315 s \$0-solo;
#X obj 72 363 sel 0 1;
#X obj 192 363 sel 0 1;
#X obj 72 392 s \$0-clear-mute;
#X obj 95 422 s \$0-set-mute;
#X obj 192 392 s \$0-clear-solo;
#X obj 215 422 s \$0-set-solo;
#X obj 13 26 inlet;
#X connect 0 0 1 0;
#X connect 1 0 2 0;
#X connect 2 1 3 0;
#X connect 3 0 5 0;
#X connect 5 0 6 0;
#X connect 5 1 7 0;
#X connect 6 0 9 0;
#X connect 9 0 11 0;
#X connect 12 0 16 0;
#X connect 12 1 17 0;
#X connect 13 0 12 0;
#X connect 14 0 15 0;
#X connect 14 0 22 0;
#X connect 15 0 13 1;
#X connect 16 0 18 0;
#X connect 16 0 27 0;
#X connect 17 0 20 0;
#X connect 17 0 28 0;
#X connect 18 0 19 0;
#X connect 18 1 23 0;
#X connect 19 0 24 0;
#X connect 20 0 21 0;
#X connect 20 1 23 0;
#X connect 21 0 24 0;
#X connect 22 0 23 0;
#X connect 23 0 24 0;
#X connect 24 0 25 0;
#X connect 24 1 26 0;
#X connect 27 0 29 0;
#X connect 27 1 30 0;
#X connect 28 0 31 0;
#X connect 28 1 32 0;
#X connect 33 0 13 0;
#X restore 30 280 pd mode;
#X connect 0 0 3 0;
#X connect 1 0 3 0;
#X connect 2 0 9 0;
#X connect 4 0 3 0;
#X connect 5 0 3 0;
#X connect 6 0 7 0;
#X connect 8 0 4 0;
#X connect 8 1 5 0;
#X connect 9 0 0 0;
#X connect 9 1 1 0;
#X connect 9 2 6 0;
#X connect 9 3 10 0;
#X connect 9 3 14 0;
#X connect 9 3 19 0;
#X connect 9 3 37 0;
#X connect 10 0 8 0;
#X connect 11 0 10 1;
#X connect 13 0 14 1;
#X connect 14 0 23 0;
#X connect 15 0 16 0;
#X connect 16 0 17 0;
#X connect 17 0 3 0;
#X connect 18 0 19 1;
#X connect 19 0 25 0;
#X connect 20 0 21 0;
#X connect 21 0 3 0;
#X connect 22 0 20 0;
#X connect 23 0 31 0;
#X connect 24 0 22 0;
#X connect 24 1 20 1;
#X connect 25 0 32 0;
#X connect 26 0 15 0;
#X connect 26 1 16 1;
#X connect 28 0 27 0;
#X connect 29 0 28 1;
#X connect 31 1 33 0;
#X connect 32 1 34 0;
#X connect 33 0 35 0;
#X connect 34 0 36 0;
#X connect 35 0 26 0;
#X connect 36 0 24 0;
#X restore 290 160 pd buttons;
#X obj 30 117 route 1 9 17;
#X msg 180 160 note \$1 \$2 17;
#N canvas 800 432 450 300 faders 0;
#X obj 20 70 unpack f f;
#X obj 20 99 moses 8;
#X obj 20 128 + 21;
#X obj 83 99 moses 16;
#X obj 153 99 moses 24;
#X obj 223 99 moses 32;
#X obj 20 157 pack f f;
#X msg 20 186 ctl \$2 \$1 32;
#X obj 83 129 + 22;
#X obj 153 128 + 23;
#X obj 223 128 + 24;
#X obj 20 20 inlet;
#X obj 20 230 outlet;
#X connect 0 0 1 0;
#X connect 0 1 6 1;
#X connect 1 0 2 0;
#X connect 1 1 3 0;
#X connect 2 0 6 0;
#X connect 3 0 8 0;
#X connect 3 1 4 0;
#X connect 4 0 9 0;
#X connect 4 1 5 0;
#X connect 5 0 10 0;
#X connect 6 0 7 0;
#X connect 7 0 12 0;
#X connect 8 0 6 0;
#X connect 9 0 6 0;
#X connect 10 0 6 0;
#X connect 11 0 0 0;
#X restore 380 160 pd faders;
#X text 130 30 Launchpad Pro MK3 mapping for Koala Sampler;
#X connect 0 0 1 0;
#X connect 1 0 2 0;
#X connect 1 1 6 0;
#X connect 2 0 9 0;
#X connect 3 0 5 0;
#X connect 4 0 5 0;
#X connect 6 0 7 0;
#X connect 7 0 8 0;
#X connect 7 1 11 0;
#X connect 8 0 5 0;
#X connect 9 0 3 0;
#X connect 9 1 4 0;
#X connect 9 2 10 0;
#X connect 10 0 5 0;
#X connect 11 0 5 0;
#X restore 100 160 pd midi;
#X text 10 30 Enable DAW mode and set up buttons and faders on the
Launchpad -- click this first., f 24;
#X text 200 30 Launchpad Pro MK3 (other Launchpad devices untested):
Connect the DAW and MIDI ports to Pd MIDI input #1 and #2 \, respectively
\, and Pd output #1 to both DAW and MIDI ports of the Launchpad.,
f 53;
#X obj 200 293 midi-output;
#X text 240 203 play;
#X text 350 203 record;
#X msg 200 264 note 79 \$1 32;
#X msg 310 264 note 78 \$1 32;
#X text 200 110 Koala Sampler: Connect to Pd MIDI output #2.;
#X obj 200 200 bng 25 250 50 0 empty empty empty 17 7 0 10 #fcfcfc
#000000 #000000;
#X obj 200 234 t 0 1;
#X obj 310 200 bng 25 250 50 0 empty empty empty 17 7 0 10 #fa0808
#000000 #000000;
#X obj 310 234 t 0 1;
#X obj 440 330 declare -path lib;
#X connect 1 0 4 0;
#X connect 3 0 2 0;
#X connect 12 0 9 0;
#X connect 13 0 9 0;
#X connect 15 0 16 0;
#X connect 16 0 12 0;
#X connect 16 1 12 0;
#X connect 17 0 18 0;
#X connect 18 0 13 0;
#X connect 18 1 13 0;
