#N canvas 478 441 426 389 12;
#X declare -path lib;
#X obj 30 240 tgl 15 0 empty empty empty 17 7 0 10 #fcfcfc #000000
#000000 0 1;
#N canvas 374 439 450 300 monitor 0;
#X obj 20 70 midi-input;
#X obj 20 99 spigot;
#X obj 20 128 print in;
#X obj 20 20 inlet;
#X connect 0 0 1 0;
#X connect 1 0 2 0;
#X connect 3 0 1 1;
#X restore 30 270 pd monitor;
#X text 30 300 monitor incoming MIDI events in the console, f 19;
#N canvas 753 348 534 378 midi 0;
#X obj 30 30 midi-input;
#X obj 30 59 route note ctl;
#X obj 30 340 midi-output;
#N canvas 801 349 666 412 session-xl 0;
#X obj 30 150 moses 41;
#X obj 30 181 moses 57;
#X obj 100 181 moses 73;
#X obj 170 181 moses 89;
#X obj 240 181 moses 93;
#X obj 30 120 unpack f f;
#X obj 30 210 - 41;
#X obj 30 298 pack f f;
#X msg 30 327 note \$1 \$2 26;
#X obj 170 298 pack f f;
#X msg 170 327 note \$1 \$2 27;
#X obj 100 210 - 57;
#X obj 170 210 - 73;
#X obj 240 210 - 89;
#X obj 30 239 + 56;
#X obj 100 239 + 56;
#X obj 170 239 + 52;
#X obj 240 239 + 52;
#X obj 30 20 inlet;
#X obj 30 360 outlet;
#X obj 30 79 spigot 1;
#X obj 83 50 tgl 15 1 empty \$0-clip empty 17 7 0 10 #fcfcfc #000000
#000000 1 1;
#X obj 389 54 tgl 15 1 empty \$0-solo empty 17 7 0 10 #fcfcfc #000000
#000000 0 1;
#X obj 350 83 spigot;
#X obj 350 153 moses 73;
#X obj 350 183 moses 89;
#X obj 420 183 moses 93;
#X obj 350 212 - 73;
#X obj 350 271 + 57;
#X obj 350 301 pack f f;
#X msg 350 330 ctl \$2 \$1 32;
#X obj 539 54 tgl 15 1 empty \$0-mute empty 17 7 0 10 #fcfcfc #000000
#000000 0 1;
#X obj 500 83 spigot;
#X obj 500 153 moses 73;
#X obj 500 183 moses 89;
#X obj 570 183 moses 93;
#X obj 500 212 - 73;
#X obj 500 301 pack f f;
#X msg 500 330 ctl \$2 \$1 32;
#X obj 500 271 + 65;
#N canvas 577 479 494 300 mode 0;
#X obj 20 60 route 106 107;
#X obj 20 89 > 0;
#X obj 20 118 sel 1;
#X msg 20 147 0 1 0;
#X obj 70 89 > 0;
#X obj 70 118 sel 1;
#X msg 70 147 0 0 1;
#X msg 50 180 1 0 0;
#X obj 50 209 unpack f f f;
#X obj 20 20 inlet;
#X text 140 30 mute/solo buttons -- these temporarily switch to Koala's
mute and solo controls of the mixer, f 40;
#X obj 240 160 sel 0 1;
#X obj 360 160 sel 0 1;
#X obj 50 238 s \$0-clip;
#X obj 130 238 s \$0-mute;
#X obj 210 238 s \$0-solo;
#X obj 240 189 s \$0-clear-mute;
#X obj 263 219 s \$0-set-mute;
#X obj 360 189 s \$0-clear-solo;
#X obj 383 219 s \$0-set-solo;
#X connect 0 0 1 0;
#X connect 0 1 4 0;
#X connect 1 0 2 0;
#X connect 1 0 11 0;
#X connect 2 0 3 0;
#X connect 2 1 7 0;
#X connect 3 0 8 0;
#X connect 4 0 5 0;
#X connect 4 0 12 0;
#X connect 5 0 6 0;
#X connect 5 1 7 0;
#X connect 6 0 8 0;
#X connect 7 0 8 0;
#X connect 8 0 13 0;
#X connect 8 1 14 0;
#X connect 8 2 15 0;
#X connect 9 0 0 0;
#X connect 11 0 16 0;
#X connect 11 1 17 0;
#X connect 12 0 18 0;
#X connect 12 1 19 0;
#X restore 420 83 pd mode;
#X text 350 23 mute/solo buttons (mixer);
#X text 120 80 this maps the bottom button rows so that they can be
used to launch clips on sequence bank 1 and 2, f 27;
#X obj 350 124 stripnote;
#X obj 420 212 - 85;
#X obj 570 212 - 85;
#N canvas 355 295 476 546 mute 0;
#X obj 50 30 inlet;
#X obj 82 90 sel 0 1 2 3 4 5 6 7;
#X obj 82 119 tgl 15 0 empty empty empty 17 7 0 10 #fcfcfc #000000
#000000 0 1;
#X obj 102 119 tgl 15 0 empty empty empty 17 7 0 10 #fcfcfc #000000
#000000 0 1;
#X obj 122 119 tgl 15 0 empty empty empty 17 7 0 10 #fcfcfc #000000
#000000 0 1;
#X obj 142 119 tgl 15 0 empty empty empty 17 7 0 10 #fcfcfc #000000
#000000 0 1;
#X obj 162 119 tgl 15 0 empty empty empty 17 7 0 10 #fcfcfc #000000
#000000 0 1;
#X obj 182 119 tgl 15 0 empty empty empty 17 7 0 10 #fcfcfc #000000
#000000 0 1;
#X obj 202 119 tgl 15 0 empty empty empty 17 7 0 10 #fcfcfc #000000
#000000 0 1;
#X obj 222 119 tgl 15 0 empty empty empty 17 7 0 10 #fcfcfc #000000
#000000 0 1;
#X obj 50 59 t f f;
#X obj 50 188 outlet;
#X obj 110 158 * 127;
#X obj 110 188 outlet;
#X obj 80 290 f;
#X obj 110 290 f;
#X obj 140 290 f;
#X obj 170 290 f;
#X obj 200 290 f;
#X obj 230 290 f;
#X obj 260 290 f;
#X obj 290 290 f;
#X obj 160 200 bng 15 250 50 0 empty \$0-set-mute empty 17 7 0 10 #fcfcfc
#000000 #000000;
#X obj 210 200 bng 15 250 50 0 empty \$0-clear-mute empty 17 7 0 10
#fcfcfc #000000 #000000;
#X msg 210 222 0;
#X msg 80 319 73 \$1;
#X msg 110 349 74 \$1;
#X msg 140 319 75 \$1;
#X msg 170 349 76 \$1;
#X msg 200 319 89 \$1;
#X msg 230 349 90 \$1;
#X msg 260 319 91 \$1;
#X msg 290 349 92 \$1;
#X obj 80 380 unpack f f;
#X obj 147 410 * 15;
#X text 200 410 15 = red;
#X obj 80 440 pack f f;
#X obj 80 498 midi-output;
#X text 130 30 this maintains the state of the mute buttons and outputs
the current state to the device, f 45;
#X msg 80 469 note \$1 \$2 41;
#X connect 0 0 10 0;
#X connect 1 0 2 0;
#X connect 1 1 3 0;
#X connect 1 2 4 0;
#X connect 1 3 5 0;
#X connect 1 4 6 0;
#X connect 1 5 7 0;
#X connect 1 6 8 0;
#X connect 1 7 9 0;
#X connect 2 0 12 0;
#X connect 2 0 14 0;
#X connect 3 0 12 0;
#X connect 3 0 15 0;
#X connect 4 0 12 0;
#X connect 4 0 16 0;
#X connect 5 0 12 0;
#X connect 5 0 17 0;
#X connect 6 0 12 0;
#X connect 6 0 18 0;
#X connect 7 0 12 0;
#X connect 7 0 19 0;
#X connect 8 0 12 0;
#X connect 8 0 20 0;
#X connect 9 0 12 0;
#X connect 9 0 21 0;
#X connect 10 0 11 0;
#X connect 10 1 1 0;
#X connect 12 0 13 0;
#X connect 14 0 25 0;
#X connect 15 0 26 0;
#X connect 16 0 27 0;
#X connect 17 0 28 0;
#X connect 18 0 29 0;
#X connect 19 0 30 0;
#X connect 20 0 31 0;
#X connect 21 0 32 0;
#X connect 22 0 14 0;
#X connect 22 0 21 0;
#X connect 22 0 20 0;
#X connect 22 0 19 0;
#X connect 22 0 18 0;
#X connect 22 0 17 0;
#X connect 22 0 16 0;
#X connect 22 0 15 0;
#X connect 23 0 24 0;
#X connect 24 0 25 0;
#X connect 24 0 31 0;
#X connect 24 0 29 0;
#X connect 24 0 27 0;
#X connect 24 0 26 0;
#X connect 24 0 28 0;
#X connect 24 0 30 0;
#X connect 24 0 32 0;
#X connect 25 0 33 0;
#X connect 26 0 33 0;
#X connect 27 0 33 0;
#X connect 28 0 33 0;
#X connect 29 0 33 0;
#X connect 30 0 33 0;
#X connect 31 0 33 0;
#X connect 32 0 33 0;
#X connect 33 0 36 0;
#X connect 33 1 34 0;
#X connect 34 0 36 1;
#X connect 36 0 39 0;
#X connect 39 0 37 0;
#X restore 500 240 pd mute;
#X obj 500 124 stripnote;
#N canvas 355 295 476 546 solo 0;
#X obj 50 30 inlet;
#X obj 82 90 sel 0 1 2 3 4 5 6 7;
#X obj 82 119 tgl 15 0 empty empty empty 17 7 0 10 #fcfcfc #000000
#000000 0 1;
#X obj 102 119 tgl 15 0 empty empty empty 17 7 0 10 #fcfcfc #000000
#000000 0 1;
#X obj 122 119 tgl 15 0 empty empty empty 17 7 0 10 #fcfcfc #000000
#000000 0 1;
#X obj 142 119 tgl 15 0 empty empty empty 17 7 0 10 #fcfcfc #000000
#000000 0 1;
#X obj 162 119 tgl 15 0 empty empty empty 17 7 0 10 #fcfcfc #000000
#000000 0 1;
#X obj 182 119 tgl 15 0 empty empty empty 17 7 0 10 #fcfcfc #000000
#000000 0 1;
#X obj 202 119 tgl 15 0 empty empty empty 17 7 0 10 #fcfcfc #000000
#000000 0 1;
#X obj 222 119 tgl 15 0 empty empty empty 17 7 0 10 #fcfcfc #000000
#000000 0 1;
#X obj 50 59 t f f;
#X obj 50 188 outlet;
#X obj 110 158 * 127;
#X obj 110 188 outlet;
#X obj 80 290 f;
#X obj 110 290 f;
#X obj 140 290 f;
#X obj 170 290 f;
#X obj 200 290 f;
#X obj 230 290 f;
#X obj 260 290 f;
#X obj 290 290 f;
#X obj 160 200 bng 15 250 50 0 empty \$0-set-solo empty 17 7 0 10 #fcfcfc
#000000 #000000;
#X obj 210 200 bng 15 250 50 0 empty \$0-clear-solo empty 17 7 0 10
#fcfcfc #000000 #000000;
#X msg 210 222 0;
#X msg 80 319 73 \$1;
#X msg 110 349 74 \$1;
#X msg 140 319 75 \$1;
#X msg 170 349 76 \$1;
#X msg 200 319 89 \$1;
#X msg 230 349 90 \$1;
#X msg 260 319 91 \$1;
#X msg 290 349 92 \$1;
#X obj 80 380 unpack f f;
#X obj 80 440 pack f f;
#X obj 80 498 midi-output;
#X text 130 30 this maintains the state of the solo buttons and outputs
the current state to the device, f 45;
#X obj 147 410 * 60;
#X text 200 410 60 = green;
#X msg 80 469 note \$1 \$2 41;
#X connect 0 0 10 0;
#X connect 1 0 2 0;
#X connect 1 1 3 0;
#X connect 1 2 4 0;
#X connect 1 3 5 0;
#X connect 1 4 6 0;
#X connect 1 5 7 0;
#X connect 1 6 8 0;
#X connect 1 7 9 0;
#X connect 2 0 12 0;
#X connect 2 0 14 0;
#X connect 3 0 12 0;
#X connect 3 0 15 0;
#X connect 4 0 12 0;
#X connect 4 0 16 0;
#X connect 5 0 12 0;
#X connect 5 0 17 0;
#X connect 6 0 12 0;
#X connect 6 0 18 0;
#X connect 7 0 12 0;
#X connect 7 0 19 0;
#X connect 8 0 12 0;
#X connect 8 0 20 0;
#X connect 9 0 12 0;
#X connect 9 0 21 0;
#X connect 10 0 11 0;
#X connect 10 1 1 0;
#X connect 12 0 13 0;
#X connect 14 0 25 0;
#X connect 15 0 26 0;
#X connect 16 0 27 0;
#X connect 17 0 28 0;
#X connect 18 0 29 0;
#X connect 19 0 30 0;
#X connect 20 0 31 0;
#X connect 21 0 32 0;
#X connect 22 0 14 0;
#X connect 22 0 21 0;
#X connect 22 0 20 0;
#X connect 22 0 19 0;
#X connect 22 0 18 0;
#X connect 22 0 17 0;
#X connect 22 0 16 0;
#X connect 22 0 15 0;
#X connect 23 0 24 0;
#X connect 24 0 25 0;
#X connect 24 0 31 0;
#X connect 24 0 29 0;
#X connect 24 0 27 0;
#X connect 24 0 26 0;
#X connect 24 0 28 0;
#X connect 24 0 30 0;
#X connect 24 0 32 0;
#X connect 25 0 33 0;
#X connect 26 0 33 0;
#X connect 27 0 33 0;
#X connect 28 0 33 0;
#X connect 29 0 33 0;
#X connect 30 0 33 0;
#X connect 31 0 33 0;
#X connect 32 0 33 0;
#X connect 33 0 34 0;
#X connect 33 1 37 0;
#X connect 34 0 39 0;
#X connect 37 0 34 1;
#X connect 39 0 35 0;
#X restore 350 240 pd solo;
#X connect 0 1 1 0;
#X connect 1 0 6 0;
#X connect 1 1 2 0;
#X connect 2 0 11 0;
#X connect 2 1 3 0;
#X connect 3 0 12 0;
#X connect 3 1 4 0;
#X connect 4 0 13 0;
#X connect 5 0 0 0;
#X connect 5 1 7 1;
#X connect 5 1 9 1;
#X connect 6 0 14 0;
#X connect 7 0 8 0;
#X connect 8 0 19 0;
#X connect 9 0 10 0;
#X connect 10 0 19 0;
#X connect 11 0 15 0;
#X connect 12 0 16 0;
#X connect 13 0 17 0;
#X connect 14 0 7 0;
#X connect 15 0 9 0;
#X connect 16 0 7 0;
#X connect 17 0 9 0;
#X connect 18 0 20 0;
#X connect 18 0 23 0;
#X connect 18 0 40 0;
#X connect 18 0 32 0;
#X connect 20 0 5 0;
#X connect 21 0 20 1;
#X connect 22 0 23 1;
#X connect 23 0 43 0;
#X connect 24 1 25 0;
#X connect 25 0 27 0;
#X connect 25 1 26 0;
#X connect 26 0 44 0;
#X connect 27 0 48 0;
#X connect 28 0 29 0;
#X connect 29 0 30 0;
#X connect 30 0 19 0;
#X connect 31 0 32 1;
#X connect 32 0 47 0;
#X connect 33 1 34 0;
#X connect 34 0 36 0;
#X connect 34 1 35 0;
#X connect 35 0 45 0;
#X connect 36 0 46 0;
#X connect 37 0 38 0;
#X connect 38 0 19 0;
#X connect 39 0 37 0;
#X connect 43 0 24 0;
#X connect 44 0 48 0;
#X connect 45 0 46 0;
#X connect 46 0 39 0;
#X connect 46 1 37 1;
#X connect 47 0 33 0;
#X connect 48 0 28 0;
#X connect 48 1 29 1;
#X restore 30 220 pd session-xl;
#N canvas 1103 512 423 346 faders-xl 0;
#X obj 20 70 unpack f f;
#X obj 20 247 pack f f;
#X msg 20 276 ctl \$2 \$1 32;
#X obj 20 20 inlet;
#X obj 20 310 outlet;
#X obj 20 99 moses 13;
#X obj 20 159 moses 29;
#X obj 83 159 moses 49;
#X obj 153 159 moses 77;
#X obj 223 159 moses 85;
#X obj 20 188 - 13;
#X obj 83 188 - 29;
#X obj 153 188 - 49;
#X obj 223 188 - 77;
#X obj 223 218 + 21;
#X text 110 20 fader mapping for the Novation Launch Control XL --
use factory template #8, f 40;
#X text 110 70 map the faders to the mixer and the encoders to the
sample and performance controls, f 44;
#X text 224 130 faders;
#X text 21 130 send A;
#X text 84 130 send B;
#X text 154 130 pan;
#X obj 153 218 + 30;
#X obj 83 219 + 48;
#X obj 20 218 + 39;
#X connect 0 0 5 0;
#X connect 0 1 1 1;
#X connect 1 0 2 0;
#X connect 2 0 4 0;
#X connect 3 0 0 0;
#X connect 5 1 6 0;
#X connect 6 0 10 0;
#X connect 6 1 7 0;
#X connect 7 0 11 0;
#X connect 7 1 8 0;
#X connect 8 0 12 0;
#X connect 8 1 9 0;
#X connect 9 0 13 0;
#X connect 10 0 23 0;
#X connect 11 0 22 0;
#X connect 12 0 21 0;
#X connect 13 0 14 0;
#X connect 14 0 1 0;
#X connect 21 0 1 0;
#X connect 22 0 1 0;
#X connect 23 0 1 0;
#X restore 140 220 pd faders-xl;
#X text 30 160 Launch Control XL mapping, f 35;
#X obj 30 190 route 41;
#X obj 140 190 route 41;
#X msg 30 90 \$3 \$1 \$2;
#X msg 110 90 \$3 \$2 \$1;
#X connect 0 0 1 0;
#X connect 1 0 8 0;
#X connect 1 1 9 0;
#X connect 3 0 2 0;
#X connect 4 0 2 0;
#X connect 6 0 3 0;
#X connect 7 0 4 0;
#X connect 8 0 6 0;
#X connect 9 0 7 0;
#X restore 140 230 pd midi;
#X obj 30 190 midi-output;
#X text 70 100 play;
#X text 180 100 record;
#X msg 30 161 note 79 \$1 32;
#X msg 140 161 note 78 \$1 32;
#X text 30 70 Koala Sampler: Connect to Pd MIDI output #2.;
#X obj 30 97 bng 25 250 50 0 empty empty empty 17 7 0 10 #fcfcfc #000000
#000000;
#X obj 30 131 t 0 1;
#X obj 140 97 bng 25 250 50 0 empty empty empty 17 7 0 10 #fa0808 #000000
#000000;
#X obj 140 131 t 0 1;
#X text 30 20 Launch Control XL: Connect to Pd MIDI input and output
#3 and use factory template #1., f 53;
#X obj 200 330 declare -path lib;
#X connect 0 0 1 0;
#X connect 7 0 4 0;
#X connect 8 0 4 0;
#X connect 10 0 11 0;
#X connect 11 0 7 0;
#X connect 11 1 7 0;
#X connect 12 0 13 0;
#X connect 13 0 8 0;
#X connect 13 1 8 0;
