#N canvas 192 365 424 435 10;
#X obj 22 51 inlet;
#X obj 22 311 ctlout;
#X obj 59 331 noteout;
#X obj 99 309 polytouchout;
#X obj 136 331 pgmout;
#X obj 176 309 bendout;
#X obj 214 329 touchout;
#X msg 50 146 250;
#X msg 86 145 251;
#X msg 122 145 252;
#X obj 50 230 midiout;
#X obj 158 121 list prepend 240;
#X obj 158 143 list append 247;
#X text 25 9 This is a little helper patch which decodes MIDI messages
in a symbolic format (SMMF = Simple MIDI Message Format).;
#X obj 107 51 inlet;
#N canvas 653 214 559 415 sys-out 0;
#X obj 100 129 - 1;
#X obj 100 189 + 1;
#X floatatom 100 218 5 0 0 0 - - -, f 5;
#X obj 20 30 inlet;
#X obj 100 30 inlet;
#X obj 20 360 outlet;
#X obj 100 360 outlet;
#N canvas 783 435 467 400 map-out 0;
#X obj 20 80 t f f;
#X obj 20 178 ==;
#X obj 70 178 ==;
#X obj 120 178 ==;
#X obj 170 178 ==;
#X obj 20 149 v o1;
#X obj 70 149 v o2;
#X obj 120 149 v o3;
#X obj 170 149 v o4;
#X obj 20 120 t b b b b;
#X obj 130 102 + 1;
#X obj 20 207 sel 1;
#X obj 70 207 sel 1;
#X obj 120 207 sel 1;
#X obj 170 207 sel 1;
#X obj 20 30 inlet;
#X obj 20 340 outlet;
#X msg 20 236 0;
#X msg 70 236 1;
#X msg 120 236 2;
#X msg 170 236 3;
#X connect 0 0 9 0;
#X connect 0 1 10 0;
#X connect 1 0 11 0;
#X connect 2 0 12 0;
#X connect 3 0 13 0;
#X connect 4 0 14 0;
#X connect 5 0 1 0;
#X connect 6 0 2 0;
#X connect 7 0 3 0;
#X connect 8 0 4 0;
#X connect 9 0 5 0;
#X connect 9 1 6 0;
#X connect 9 2 7 0;
#X connect 9 3 8 0;
#X connect 10 0 1 1;
#X connect 10 0 4 1;
#X connect 10 0 3 1;
#X connect 10 0 2 1;
#X connect 11 0 17 0;
#X connect 12 0 18 0;
#X connect 13 0 19 0;
#X connect 14 0 20 0;
#X connect 15 0 0 0;
#X connect 17 0 16 0;
#X connect 18 0 16 0;
#X connect 19 0 16 0;
#X connect 20 0 16 0;
#X restore 100 160 pd map-out;
#X obj 20 69 t b a;
#X obj 20 160 list store;
#X obj 100 246 t b f;
#X obj 100 100 f 1;
#X obj 20 274 list split 1;
#X obj 20 227 until;
#X obj 20 205 t b l;
#X obj 61 227 bang;
#X obj 20 250 list;
#X connect 0 0 7 0;
#X connect 1 0 2 0;
#X connect 2 0 10 0;
#X connect 3 0 8 0;
#X connect 4 0 11 1;
#X connect 7 0 1 0;
#X connect 8 0 11 0;
#X connect 8 1 9 1;
#X connect 9 0 14 0;
#X connect 10 0 9 0;
#X connect 10 1 6 0;
#X connect 11 0 0 0;
#X connect 12 0 5 0;
#X connect 12 1 16 1;
#X connect 12 2 15 0;
#X connect 13 0 16 0;
#X connect 14 0 13 0;
#X connect 14 1 16 1;
#X connect 15 0 13 1;
#X connect 16 0 12 0;
#X restore 50 200 pd sys-out;
#N canvas 107 281 559 574 midi-out 0;
#X obj 20 492 list trim;
#X obj 20 30 inlet;
#X obj 20 520 outlet;
#X obj 20 149 list split;
#X obj 130 90 list length;
#X obj 130 119 - 1;
#X obj 20 220 f;
#X obj 20 178 t b a;
#X obj 20 250 t f f;
#X obj 20 279 div 16;
#X obj 70 279 mod 16;
#X obj 20 346 * 16;
#X obj 20 375 +;
#N canvas 783 435 467 400 map-out 0;
#X obj 20 80 t f f;
#X obj 20 178 ==;
#X obj 70 178 ==;
#X obj 120 178 ==;
#X obj 170 178 ==;
#X obj 20 149 v o1;
#X obj 70 149 v o2;
#X obj 120 149 v o3;
#X obj 170 149 v o4;
#X obj 20 120 t b b b b;
#X obj 130 102 + 1;
#X obj 20 207 sel 1;
#X obj 70 207 sel 1;
#X obj 120 207 sel 1;
#X obj 170 207 sel 1;
#X obj 20 30 inlet;
#X obj 20 340 outlet;
#X msg 20 236 0;
#X msg 70 236 1;
#X msg 120 236 2;
#X msg 170 236 3;
#X connect 0 0 9 0;
#X connect 0 1 10 0;
#X connect 1 0 11 0;
#X connect 2 0 12 0;
#X connect 3 0 13 0;
#X connect 4 0 14 0;
#X connect 5 0 1 0;
#X connect 6 0 2 0;
#X connect 7 0 3 0;
#X connect 8 0 4 0;
#X connect 9 0 5 0;
#X connect 9 1 6 0;
#X connect 9 2 7 0;
#X connect 9 3 8 0;
#X connect 10 0 1 1;
#X connect 10 0 4 1;
#X connect 10 0 3 1;
#X connect 10 0 2 1;
#X connect 11 0 17 0;
#X connect 12 0 18 0;
#X connect 13 0 19 0;
#X connect 14 0 20 0;
#X connect 15 0 0 0;
#X connect 17 0 16 0;
#X connect 18 0 16 0;
#X connect 19 0 16 0;
#X connect 20 0 16 0;
#X restore 20 313 pd map-out;
#X obj 20 434 list prepend;
#X obj 130 280 list split 1;
#X obj 20 463 list prepend;
#X obj 20 60 t a a;
#X obj 20 120 t a a;
#X obj 20 90 list split 1;
#X obj 80 178 - 1;
#X obj 20 404 + 1;
#X connect 0 0 2 0;
#X connect 1 0 17 0;
#X connect 3 0 7 0;
#X connect 3 1 20 0;
#X connect 4 0 5 0;
#X connect 5 0 3 1;
#X connect 6 0 8 0;
#X connect 7 0 6 0;
#X connect 7 1 14 1;
#X connect 8 0 9 0;
#X connect 8 1 10 0;
#X connect 9 0 13 0;
#X connect 10 0 12 1;
#X connect 11 0 12 0;
#X connect 12 0 21 0;
#X connect 13 0 11 0;
#X connect 14 0 16 0;
#X connect 15 0 16 1;
#X connect 16 0 0 0;
#X connect 17 0 19 0;
#X connect 17 1 15 0;
#X connect 18 0 3 0;
#X connect 18 1 4 0;
#X connect 19 1 18 0;
#X connect 20 0 6 1;
#X connect 21 0 14 0;
#X restore 22 110 pd midi-out;
#X obj 22 76 route start cont stop sysex;
#X obj 22 256 route ctl note polytouch pgm bend touch;
#X connect 0 0 17 0;
#X connect 7 0 15 0;
#X connect 8 0 15 0;
#X connect 9 0 15 0;
#X connect 11 0 12 0;
#X connect 12 0 15 0;
#X connect 14 0 15 1;
#X connect 15 0 10 0;
#X connect 15 1 10 1;
#X connect 16 0 18 0;
#X connect 17 0 7 0;
#X connect 17 1 8 0;
#X connect 17 2 9 0;
#X connect 17 3 11 0;
#X connect 17 4 16 0;
#X connect 18 0 1 0;
#X connect 18 1 2 0;
#X connect 18 2 3 0;
#X connect 18 3 4 0;
#X connect 18 4 5 0;
#X connect 18 5 6 0;
