#N canvas 277 328 583 400 10;
#X obj 24 50 ctlin;
#X obj 24 71 pack f f f;
#X msg 24 92 ctl \$1 \$2 \$3;
#X obj 126 70 pack f f f;
#X obj 223 70 pack f f f;
#X obj 126 49 notein;
#X msg 126 91 note \$1 \$2 \$3;
#X obj 223 49 polytouchin;
#X msg 223 91 polytouch \$1 \$2 \$3;
#X obj 22 121 pgmin;
#X obj 22 142 pack f f;
#X msg 22 163 pgm \$1 \$2;
#X obj 126 142 pack f f;
#X obj 223 142 pack f f;
#X obj 126 121 bendin 0 1;
#X msg 126 163 bend \$1 \$2;
#X obj 223 121 touchin;
#X msg 223 163 touch \$1 \$2;
#X obj 21 193 midiin;
#X obj 21 214 sel 250 251 252;
#X msg 21 235 start;
#X msg 50 257 cont;
#X msg 79 237 stop;
#X obj 222 359 outlet;
#X obj 410 21 sysexin;
#X obj 410 51 sel 240;
#X msg 410 75 1;
#X obj 410 172 tgl 15 0 empty empty empty 17 7 0 10 #fcfcfc #000000
#000000 0 1;
#X obj 449 76 spigot;
#X obj 449 103 moses 128;
#X msg 500 156 0;
#X obj 449 216 list prepend;
#X obj 410 194 swap 1;
#X obj 410 216 -;
#X obj 410 241 tgl 15 0 empty empty empty 17 7 0 10 #fcfcfc #000000
#000000 1 1;
#X obj 410 280 spigot;
#X obj 500 128 t b b b;
#X obj 410 307 list prepend sysex;
#X obj 410 328 list trim;
#X text 370 360 sysex input - this is a bit tricky;
#X obj 536 241 t l;
#X text 20 7 This is a little helper patch which encodes MIDI messages
in a symbolic format (SMMF = Simple MIDI Message Format).;
#X obj 282 359 outlet;
#N canvas 450 481 559 301 sys-in 0;
#X obj 100 80 - 1;
#X obj 100 140 + 1;
#X floatatom 100 169 5 0 0 0 - - -, f 5;
#X obj 20 30 inlet;
#X obj 100 30 inlet;
#X obj 20 220 outlet;
#X obj 100 220 outlet;
#N canvas 811 493 450 300 map-in 0;
#X obj 20 109 v i1;
#X obj 70 109 v i2;
#X obj 120 109 v i3;
#X obj 170 109 v i4;
#X obj 20 138 - 1;
#X obj 20 80 sel 0 1 2 3;
#X obj 20 167 t f f;
#X obj 80 200 >= 0;
#X obj 20 20 inlet;
#X obj 20 260 outlet;
#X obj 80 260 outlet;
#X obj 20 230 spigot;
#X connect 0 0 4 0;
#X connect 1 0 4 0;
#X connect 2 0 4 0;
#X connect 3 0 4 0;
#X connect 4 0 6 0;
#X connect 5 0 0 0;
#X connect 5 1 1 0;
#X connect 5 2 2 0;
#X connect 5 3 3 0;
#X connect 6 0 11 0;
#X connect 6 1 7 0;
#X connect 7 0 10 0;
#X connect 7 0 11 1;
#X connect 8 0 5 0;
#X connect 11 0 9 0;
#X restore 100 111 pd map-in;
#X obj 20 169 spigot 1;
#X connect 0 0 7 0;
#X connect 1 0 2 0;
#X connect 2 0 6 0;
#X connect 3 0 8 0;
#X connect 4 0 0 0;
#X connect 7 0 1 0;
#X connect 7 1 8 1;
#X connect 8 0 5 0;
#X restore 200 300 pd sys-in;
#N canvas 147 324 559 565 midi-in 0;
#X obj 20 70 list split 1;
#X obj 90 99 t a a;
#X obj 90 188 list split;
#X obj 180 128 list length;
#X obj 180 157 - 1;
#X obj 150 247 t f f;
#X obj 150 276 div 16;
#X obj 200 276 mod 16;
#X obj 150 333 * 16;
#X obj 150 362 +;
#X obj 20 389 list append;
#X obj 20 418 list append;
#X obj 20 447 list trim;
#X obj 20 30 inlet;
#X obj 20 500 outlet;
#N canvas 811 493 450 300 map-in 0;
#X obj 20 109 v i1;
#X obj 70 109 v i2;
#X obj 120 109 v i3;
#X obj 170 109 v i4;
#X obj 20 138 - 1;
#X obj 20 80 sel 0 1 2 3;
#X obj 20 167 t f f;
#X obj 80 200 >= 0;
#X obj 20 20 inlet;
#X obj 20 260 outlet;
#X obj 80 260 outlet;
#X obj 20 230 spigot;
#X connect 0 0 4 0;
#X connect 1 0 4 0;
#X connect 2 0 4 0;
#X connect 3 0 4 0;
#X connect 4 0 6 0;
#X connect 5 0 0 0;
#X connect 5 1 1 0;
#X connect 5 2 2 0;
#X connect 5 3 3 0;
#X connect 6 0 11 0;
#X connect 6 1 7 0;
#X connect 7 0 10 0;
#X connect 7 0 11 1;
#X connect 8 0 5 0;
#X connect 11 0 9 0;
#X restore 150 300 pd map-in;
#X obj 20 349 spigot;
#X obj 150 220 - 1;
#X obj 150 387 + 1;
#X connect 0 0 16 0;
#X connect 0 1 1 0;
#X connect 1 0 2 0;
#X connect 1 1 3 0;
#X connect 2 0 10 1;
#X connect 2 1 17 0;
#X connect 3 0 4 0;
#X connect 4 0 2 1;
#X connect 5 0 6 0;
#X connect 5 1 7 0;
#X connect 6 0 15 0;
#X connect 7 0 9 1;
#X connect 8 0 9 0;
#X connect 9 0 18 0;
#X connect 10 0 11 0;
#X connect 11 0 12 0;
#X connect 12 0 14 0;
#X connect 13 0 0 0;
#X connect 15 0 8 0;
#X connect 15 1 16 1;
#X connect 16 0 10 0;
#X connect 17 0 5 0;
#X connect 18 0 11 1;
#X restore 270 300 pd midi-in;
#X connect 0 0 1 0;
#X connect 0 1 1 1;
#X connect 0 2 1 2;
#X connect 1 0 2 0;
#X connect 2 0 44 0;
#X connect 3 0 6 0;
#X connect 4 0 8 0;
#X connect 5 0 3 0;
#X connect 5 1 3 1;
#X connect 5 2 3 2;
#X connect 6 0 44 0;
#X connect 7 0 4 0;
#X connect 7 1 4 1;
#X connect 7 2 4 2;
#X connect 8 0 44 0;
#X connect 9 0 10 0;
#X connect 9 1 10 1;
#X connect 10 0 11 0;
#X connect 11 0 44 0;
#X connect 12 0 15 0;
#X connect 13 0 17 0;
#X connect 14 0 12 0;
#X connect 14 1 12 1;
#X connect 15 0 44 0;
#X connect 16 0 13 0;
#X connect 16 1 13 1;
#X connect 17 0 44 0;
#X connect 18 0 19 0;
#X connect 18 1 43 1;
#X connect 19 0 20 0;
#X connect 19 1 21 0;
#X connect 19 2 22 0;
#X connect 20 0 43 0;
#X connect 21 0 43 0;
#X connect 22 0 43 0;
#X connect 24 0 25 0;
#X connect 24 1 43 1;
#X connect 25 0 26 0;
#X connect 25 1 28 0;
#X connect 26 0 27 0;
#X connect 27 0 28 1;
#X connect 27 0 32 0;
#X connect 28 0 29 0;
#X connect 29 0 31 0;
#X connect 29 1 36 0;
#X connect 30 0 27 0;
#X connect 31 0 35 0;
#X connect 31 0 40 0;
#X connect 32 0 33 0;
#X connect 32 1 33 1;
#X connect 33 0 34 0;
#X connect 34 0 35 1;
#X connect 35 0 37 0;
#X connect 36 0 31 1;
#X connect 36 1 31 0;
#X connect 36 2 30 0;
#X connect 37 0 38 0;
#X connect 38 0 43 0;
#X connect 40 0 31 1;
#X connect 43 0 23 0;
#X connect 43 1 42 0;
#X connect 44 0 23 0;
