#N canvas 929 406 441 223 12;
#X obj 180 150 hradio 15 0 0 2 empty empty empty 0 -8 0 10 #fcfcfc
#000000 #000000 0;
#X text 130 149 Linux;
#X text 220 149 Mac/Windows;
#N canvas 650 501 438 406 presets 0;
#X text 144 166 Presets;
#X obj 150 70 sel 0 1;
#X obj 20 20 inlet;
#X obj 60 261 r i1;
#X obj 60 290 v i1;
#X obj 110 261 r i2;
#X obj 110 290 v i2;
#X obj 60 321 r i3;
#X obj 60 350 v i3;
#X obj 110 321 r i4;
#X obj 110 350 v i4;
#X obj 200 261 r o1;
#X obj 200 290 v o1;
#X obj 250 261 r o2;
#X obj 250 290 v o2;
#X obj 200 321 r o3;
#X obj 200 350 v o3;
#X obj 250 321 r o4;
#X obj 250 350 v o4;
#X msg 20 146 \; i1 1 \; i2 0 \; i3 3 \; i4 0;
#X msg 80 146 \; i1 1 \; i2 1 \; i3 3 \; i4 0;
#X msg 220 146 \; o1 1 \; o2 2 \; o3 3 \; o4 0;
#X msg 280 146 \; o1 1 \; o2 1 \; o3 2 \; o4 3;
#X connect 1 0 19 0;
#X connect 1 0 21 0;
#X connect 1 1 20 0;
#X connect 1 1 22 0;
#X connect 2 0 1 0;
#X connect 3 0 4 0;
#X connect 5 0 6 0;
#X connect 7 0 8 0;
#X connect 9 0 10 0;
#X connect 11 0 12 0;
#X connect 13 0 14 0;
#X connect 15 0 16 0;
#X connect 17 0 18 0;
#X restore 180 180 pd presets;
#X obj 57 52 vradio 15 0 1 4 i1 i1 empty 0 -8 0 10 #fcfcfc #000000
#000000 1;
#X obj 77 52 vradio 15 0 1 4 i2 i2 empty 0 -8 0 10 #fcfcfc #000000
#000000 0;
#X obj 97 52 vradio 15 0 1 4 i3 i3 empty 0 -8 0 10 #fcfcfc #000000
#000000 3;
#X obj 117 52 vradio 15 0 1 4 i4 i4 empty 0 -8 0 10 #fcfcfc #000000
#000000 0;
#X obj 257 52 vradio 15 0 1 4 o1 o1 empty 0 -8 0 10 #fcfcfc #000000
#000000 1;
#X obj 277 52 vradio 15 0 1 4 o2 o2 empty 0 -8 0 10 #fcfcfc #000000
#000000 2;
#X obj 297 52 vradio 15 0 1 4 o3 o3 empty 0 -8 0 10 #fcfcfc #000000
#000000 3;
#X obj 317 52 vradio 15 0 1 4 o4 o4 empty 0 -8 0 10 #fcfcfc #000000
#000000 0;
#X text 164 64 Launchpad;
#X text 147 97 Launch Control;
#X text 177 81 Koala;
#X text 69 22 Inputs;
#X text 269 22 Outputs;
#X text 59 120 1;
#X text 79 120 2;
#X text 99 120 3;
#X text 120 120 4;
#X text 259 120 1;
#X text 279 120 2;
#X text 299 120 3;
#X text 320 120 4;
#X connect 0 0 3 0;
